<svg xmlns="http://www.w3.org/2000/svg" viewBox="0 0 24 24" fill="#075E54" width="48" height="48">
  <rect width="24" height="24" rx="6" fill="#CBD83B"/>
  <path d="M12.04 7.23c-.88 0-1.58.72-1.58 1.6 0 .42.15.82.42 1.13.08.09.1.22.04.33l-.6 1.53c-.06.15-.01.32.12.42 1.02.84 2.35 1.38 3.79 1.38 3.59 0 6.5-2.92 6.5-6.52 0-3.6-2.91-6.51-6.5-6.51-3.59 0-6.5 2.91-6.5 6.5 0 1.28.38 2.47 1.03 3.47l-.71 2.6 2.66-.7c.9.58 1.95.92 3.04.92 3.59 0 6.5-2.91 6.5-6.5s-2.91-6.5-6.5-6.5z" fill="#075E54"/>
</svg>